<?xml version="1.0" encoding="utf-8"?>
<!-- Generator: Adobe Illustrator 24.3.0, SVG Export Plug-In . SVG Version: 6.00 Build 0)  -->
<svg version="1.1" id="Layer_1" xmlns="http://www.w3.org/2000/svg" xmlns:xlink="http://www.w3.org/1999/xlink" x="0px" y="0px"
	 viewBox="0 0 960 560" style="enable-background:new 0 0 960 560;" xml:space="preserve">
<style type="text/css">
	.st0{fill:#FFFFFF;}
</style>
<g>
	<g>
		<path class="st0" d="M221.8,184.6h-13.9c-2,0-3.6-1.6-3.6-3.6v-13.9c0-2,1.6-3.6,3.6-3.6h13.9c2,0,3.6,1.6,3.6,3.6V181
			C225.4,183,223.8,184.6,221.8,184.6z"/>
	</g>
	<g>
		<path class="st0" d="M248.8,184.6h-13.9c-2,0-3.6-1.6-3.6-3.6v-13.9c0-2,1.6-3.6,3.6-3.6h13.9c2,0,3.6,1.6,3.6,3.6V181
			C252.3,183,250.7,184.6,248.8,184.6z"/>
	</g>
	<g>
		<path class="st0" d="M221.8,211.6h-13.9c-2,0-3.6-1.6-3.6-3.6v-13.9c0-2,1.6-3.6,3.6-3.6h13.9c2,0,3.6,1.6,3.6,3.6V208
			C225.4,210,223.8,211.6,221.8,211.6z"/>
	</g>
	<g>
		<path class="st0" d="M248.8,211.6h-13.9c-2,0-3.6-1.6-3.6-3.6v-13.9c0-2,1.6-3.6,3.6-3.6h13.9c2,0,3.6,1.6,3.6,3.6V208
			C252.3,210,250.7,211.6,248.8,211.6z"/>
	</g>
</g>
</svg>
